# xmcd
#
# Track frame offsets: 
#        150
#        18950
#        32370
#        45161
#        57496
#        68887
#        79504
#        95691
#        108848
#        124102
#        132597
#        145879
#        165035
#        171544
#
# Disc length: 2453 seconds
#
# Revision: 0
# Processed by: cddbd v1.5.2PL0 Copyright (c) Steve Scherf et al.
# Submitted via: ExactAudioCopy v0.95b4
#
DISCID=b009930e
DTITLE=Keith, Catfish - Tadpole Blues - Early Recordings 1982-1984
DYEAR=2004
DGENRE=Acoustic
TTITLE0=So Lonesome
TTITLE1=Sailing Boat
TTITLE2=Something New
TTITLE3=Down Island Waltz
TTITLE4=Can't Come Down
TTITLE5=Baking Powder
TTITLE6=Stand Around Jibbey-Jawin'
TTITLE7=Watch Her Strut Her Stuff
TTITLE8=Take A Stroll Out West
TTITLE9=Doin' That Thing
TTITLE10=If I Had Money
TTITLE11=Cold Chill
TTITLE12=My Little Girl
TTITLE13=Come And Fish With Me
EXTD=
EXTT0=
EXTT1=
EXTT2=
EXTT3=
EXTT4=
EXTT5=
EXTT6=
EXTT7=
EXTT8=
EXTT9=
EXTT10=
EXTT11=
EXTT12=
EXTT13=
PLAYORDER=
